<svg xmlns="http://www.w3.org/2000/svg" xmlns:xlink="http://www.w3.org/1999/xlink" version="1.1" x="0px" y="0px" viewBox="0 0 287 45" style="enable-background:new 0 0 287 45;" xml:space="preserve">
<style type="text/css">
	.st0{fill:#F0849F;}
	.st1{opacity:0.8;fill:#F5F3EB;}
	.st2{fill:#4D3D91;}
	.st3{fill:#9D4996;}
	.st4{fill:#A2C73D;}
	.st5{fill:#F4CD2B;}
	.st6{fill:#F28935;}
	.st7{fill:#E73C32;}
	.st8{fill:#00ACDC;}
	.st9{fill:#FFCC71;}
	.st10{fill:#F5B078;}
	.st11{fill:#7AC2E3;}
	.st12{fill:#FF1A4B;}
	.st13{fill:#FF9200;}
	.st14{fill:#FFFFFF;}
	.st15{fill:none;stroke:#8E8E8D;stroke-miterlimit:10;}
	.st16{fill:#4A4A49;}
	.st17{fill:#6CBBE6;}
	.st18{opacity:0.5;}
	.st19{fill:#FFFFFF;stroke:#D4D4D4;stroke-width:0.7693;stroke-miterlimit:10;}
	.st20{fill:#FFFFFF;stroke:#D4D4D4;stroke-width:0.7698;stroke-miterlimit:10;}
	.st21{fill:#FFFFFF;stroke:#D4D4D4;stroke-width:0.7662;stroke-miterlimit:10;}
	.st22{fill:#6A6868;}
	.st23{clip-path:url(#SVGID_4_);fill:#6B2976;}
	.st24{fill:#8BC53F;}
	.st25{fill:#22A1DC;}
	.st26{fill:#575657;}
	.st27{fill:#FFAD9D;}
	.st28{fill:#E08880;}
	.st29{fill:#5996BF;}
	.st30{clip-path:url(#SVGID_6_);}
	.st31{fill:#352836;}
	.st32{fill:#DCB9A2;}
	.st33{fill:none;stroke:#7F5E6A;stroke-width:1.1172;stroke-miterlimit:10;}
	.st34{fill:#9CC7DC;stroke:#7F5E6A;stroke-width:1.0428;stroke-miterlimit:10;}
	.st35{fill:#FFDEBF;}
	.st36{fill:#281F29;}
	.st37{fill:#A9534F;}
	.st38{fill:#853F38;}
	.st39{fill:#FF6A59;}
	.st40{opacity:0.9;}
	.st41{clip-path:url(#SVGID_8_);}
	.st42{fill:none;stroke:#FFEDEE;stroke-width:2.3278;stroke-miterlimit:10;}
	.st43{opacity:0.3;fill:#281F29;}
	.st44{fill:#FFEDEE;}
	.st45{opacity:0.1;fill:#352836;}
	.st46{fill:#FF9C7B;}
	.st47{fill:#D97E65;}
	.st48{fill:#F1534F;}
	.st49{fill:#7F5E6A;}
	.st50{fill:#987381;}
	.st51{fill:#B26651;}
	.st52{fill:none;stroke:#4A4A49;stroke-miterlimit:10;}
	.st53{opacity:0.8;}
	.st54{fill:#646464;}
	.st55{opacity:0.8;fill:#FFFFFF;}
	.st56{opacity:0.8;fill:#00B4FF;}
	.st57{fill:#00B4FF;}
	.st58{fill:none;stroke:#FFCC71;stroke-width:3;stroke-miterlimit:10;}
	.st59{clip-path:url(#SVGID_10_);fill:#6B2976;}
	.st60{clip-path:url(#SVGID_12_);fill:#6B2976;}
	.st61{clip-path:url(#SVGID_16_);fill:#6B2976;}
</style>
<g id="Graphics">
	<g>
		<path class="st10" d="M40.6,31.1c0,0,1-1.1,2.4-2c-0.2-0.1-0.4-0.1-0.6-0.1c-0.3,0-0.6,0.1-1,0.2c-0.7,0.2-1.1,0.7-1.8,1.3    c-0.3,0.3-0.7,0.7-1.2,1.1c-0.6,0.5-1.6,1-2.8,1.4c-0.4,0.1-0.8,0.3-1.2,0.4c0,0,0,0,0,0c0.4,0,0.8,0.1,1.2,0.1c0,0,0,0,0.1,0    c0.6-0.2,1-0.3,1.3-0.4C37.8,32.7,39.3,31.9,40.6,31.1z"></path>
		<path class="st10" d="M44.5,30.6c0.9-0.6,1.9-1.3,2.9-1.6c-0.6-0.3-1.2-0.4-2.1-0.1c-0.8,0.2-1.3,0.5-3.4,2    c-1.3,0.9-3.5,2.2-4.8,2.7c-0.1,0-0.1,0.1-0.2,0.1c0.1,0,0.1,0,0.2,0c0.1,0,0.1,0,0.2,0c0.2,0,0.3,0,0.4,0c0.2,0,0.3,0,0.5,0    c0.1,0,0.1,0,0.2,0c0.1,0,0.2,0,0.3,0c0.1,0,0.1,0,0.2,0c0.1,0,0.2,0,0.3,0c0.1,0,0.1,0,0.2,0c0.1,0,0.2,0,0.3,0    c1.1-0.6,3.3-2,4.1-2.5C44.1,30.9,44.3,30.8,44.5,30.6z"></path>
		<path class="st10" d="M44.8,31c-0.2,0.1-0.4,0.3-0.6,0.4c0,0-1.6,1.1-3,1.9c0.1,0,0.1,0,0.2,0c0,0,0.1,0,0.1,0    c0.2-0.1,0.5-0.1,0.7-0.2c0,0,0,0,0.1,0c0.1,0,0.2-0.1,0.3-0.1c0,0,0,0,0.1,0c0.1,0,0.2-0.1,0.3-0.1c0,0,0,0,0,0    c0.2-0.1,0.5-0.1,0.7-0.2c0,0,0,0,0,0c0.1,0,0.2-0.1,0.3-0.1c0,0,0,0,0,0c0.3-0.1,0.6-0.2,0.8-0.3c0,0,0,0,0,0    c0.1,0,0.1,0,0.2-0.1c0,0,0,0,0,0c0.1,0,0.1,0,0.2-0.1c0.5-0.2,1.1-0.6,1.8-1c0.8-0.5,1.7-1,2.7-1.4c-0.3-0.2-0.7-0.4-1.3-0.4    C47.2,29.4,46,30.2,44.8,31z"></path>
		<path class="st10" d="M50.7,29.8c-0.2,0-0.3,0-0.4,0.1c-1.1,0.4-2.1,1-2.9,1.5c-0.7,0.4-1.3,0.8-1.9,1c-1,0.3-3.2,1.2-5.5,1.5    c-0.7,0.1-1.3,0.1-1.9,0.1c-0.1,0-0.2,0-0.3,0c-0.6,0-1.4-0.1-2.2-0.1c-0.9-0.1-1.9-0.2-2.8-0.3c-3.7-0.4-4-0.8-4.2-1    c-0.2-0.2-0.1-0.3-0.1-0.4c0.1-0.2,0.5-0.3,0.9-0.3c0.8,0,2.1,0.2,2.1,0.2l0,0c0,0,1.1,0.3,2.2,0.3c0.6,0,1.1-0.1,1.4-0.2    c0.1,0,0.2-0.1,0.3-0.1c0.3-0.2,0.7-0.5,0.6-0.8c-0.1-0.2-0.4-0.4-0.5-0.4c-0.2,0-0.8-0.1-1.9-0.3c-1.2-0.2-2.7-0.5-3.6-0.7    c-0.3,0-0.6-0.1-1-0.2c-1.1-0.2-2.3-0.4-3.7-0.4c-0.6,0-1.2,0-1.8,0.1l-0.4,0.1c-2.4,0.4-4.7,0.8-6.5,3.3    c-0.3,0.4-0.5,0.8-0.7,1.2c-0.3,0.7-0.7,1.4-1.4,2c-0.4,0.4-1,0.8-1.7,1.3C12.3,38,11.1,39,11,39.3c0.2,0.2,1.6,0.7,4,0.5    c6.4-0.7,7.7-2.2,13-2.2c0.5,0,1.1,0,1.6,0c4.1,0,14.3-0.4,19.3-4.4c0.9-0.7,2.6-2.3,3.2-2.8C51.9,30.2,51.3,29.8,50.7,29.8z"></path>
	</g>
	<g>
		<path class="st16" d="M63.2,32.8c-0.1-0.1-0.2-0.3-0.2-0.5V12.9c0-0.2,0.1-0.4,0.2-0.5c0.1-0.1,0.3-0.2,0.5-0.2h8.7    c2.3,0,4.1,0.5,5.2,1.5c1.2,1,1.7,2.4,1.7,4.2c0,1-0.3,1.9-0.8,2.6c-0.5,0.7-1.1,1.2-1.8,1.6c0.8,0.4,1.5,1,2.1,1.9    c0.6,0.9,0.9,1.8,0.9,2.9c0,1.9-0.6,3.3-1.9,4.5c-1.3,1.1-3,1.7-5.3,1.7h-8.9C63.5,33,63.3,32.9,63.2,32.8z M71.8,20.7    c1,0,1.8-0.2,2.3-0.7c0.5-0.5,0.8-1.2,0.8-2s-0.3-1.5-0.8-1.9c-0.5-0.5-1.3-0.7-2.4-0.7h-4.6v5.4H71.8z M72.1,29.8    c1,0,1.8-0.3,2.4-0.9c0.6-0.6,0.9-1.3,0.9-2.2c0-0.9-0.3-1.6-0.9-2.2c-0.6-0.6-1.4-0.9-2.4-0.9h-4.9v6H72.1z"></path>
		<path class="st16" d="M84.6,31.4c-1.3-1.3-2-3.1-2.1-5.4l0-0.7c0-2.5,0.7-4.4,2-5.9c1.3-1.4,3.1-2.1,5.4-2.1    c2.4,0,4.2,0.7,5.5,2.1s1.9,3.3,1.9,5.7v0.6c0,0.2-0.1,0.4-0.2,0.5c-0.1,0.1-0.3,0.2-0.5,0.2h-9.9v0.2c0,1.1,0.3,2,0.9,2.8    c0.6,0.7,1.3,1.1,2.3,1.1c1.1,0,2.1-0.5,2.8-1.4c0.2-0.2,0.3-0.4,0.4-0.4c0.1,0,0.3-0.1,0.5-0.1h2.6c0.2,0,0.3,0.1,0.5,0.1    c0.1,0.1,0.2,0.2,0.2,0.4c0,0.5-0.3,1-0.9,1.7c-0.6,0.6-1.4,1.2-2.4,1.7c-1.1,0.5-2.3,0.7-3.7,0.7C87.6,33.3,85.9,32.7,84.6,31.4z     M93.1,23.9L93.1,23.9c0-1.2-0.3-2.2-0.9-2.9c-0.6-0.7-1.4-1.1-2.4-1.1c-1,0-1.8,0.4-2.4,1.1c-0.6,0.7-0.9,1.6-0.9,2.8v0.1H93.1z"></path>
		<path class="st16" d="M100.6,32.8c-0.1-0.1-0.2-0.3-0.2-0.5V12.5c0-0.2,0.1-0.4,0.2-0.5c0.1-0.1,0.3-0.2,0.5-0.2h2.7    c0.2,0,0.4,0.1,0.5,0.2c0.1,0.1,0.2,0.3,0.2,0.5v6.8c1.2-1.4,2.8-2.1,4.8-2.1c1.8,0,3.3,0.6,4.4,1.8c1.1,1.2,1.6,2.8,1.6,4.9v8.4    c0,0.2-0.1,0.4-0.2,0.5c-0.1,0.1-0.3,0.2-0.5,0.2H112c-0.2,0-0.4-0.1-0.5-0.2c-0.1-0.1-0.2-0.3-0.2-0.5v-8.2    c0-1.2-0.3-2.1-0.9-2.7c-0.6-0.6-1.4-1-2.4-1c-1,0-1.8,0.3-2.4,1c-0.6,0.7-0.9,1.6-0.9,2.7v8.2c0,0.2-0.1,0.4-0.2,0.5    c-0.1,0.1-0.3,0.2-0.5,0.2h-2.7C100.9,33,100.8,32.9,100.6,32.8z"></path>
		<path class="st16" d="M120.9,32.7c-0.8-0.4-1.5-1-2-1.7c-0.5-0.7-0.7-1.5-0.7-2.3c0-1.4,0.5-2.4,1.6-3.3c1.1-0.8,2.6-1.4,4.5-1.7    l4.1-0.6v-0.6c0-0.9-0.2-1.5-0.7-1.9c-0.4-0.4-1.1-0.7-2.1-0.7c-0.7,0-1.2,0.1-1.6,0.4c-0.4,0.2-0.7,0.5-1,0.7    c-0.2,0.2-0.4,0.4-0.5,0.5c-0.1,0.2-0.2,0.4-0.4,0.4h-2.3c-0.2,0-0.3-0.1-0.5-0.2c-0.1-0.1-0.2-0.3-0.2-0.5c0-0.5,0.3-1.1,0.7-1.7    c0.5-0.6,1.2-1.2,2.2-1.6c1-0.5,2.2-0.7,3.6-0.7c2.3,0,4.1,0.5,5.1,1.6c1.1,1.1,1.6,2.4,1.6,4.1v9.4c0,0.2-0.1,0.4-0.2,0.5    c-0.1,0.1-0.3,0.2-0.5,0.2h-2.5c-0.2,0-0.4-0.1-0.5-0.2c-0.1-0.1-0.2-0.3-0.2-0.5v-1.2c-0.4,0.6-1.1,1.2-1.9,1.6    c-0.8,0.4-1.8,0.6-3,0.6C122.7,33.3,121.8,33.1,120.9,32.7z M127.4,29.4c0.7-0.7,1-1.8,1-3.1v-0.6l-3,0.5    c-2.3,0.4-3.4,1.1-3.4,2.3c0,0.6,0.3,1.1,0.8,1.5c0.5,0.3,1.2,0.5,1.9,0.5C125.8,30.4,126.7,30.1,127.4,29.4z"></path>
		<path class="st16" d="M140.7,32.8c-0.2-0.1-0.3-0.3-0.4-0.6l-5.6-13.9c0-0.1,0-0.1,0-0.3c0-0.2,0.1-0.3,0.2-0.5    c0.1-0.1,0.3-0.2,0.4-0.2h2.5c0.4,0,0.7,0.2,0.8,0.6l3.9,10.4l3.9-10.4c0-0.1,0.1-0.3,0.3-0.4c0.1-0.1,0.3-0.2,0.5-0.2h2.5    c0.2,0,0.3,0.1,0.4,0.2c0.1,0.1,0.2,0.3,0.2,0.5c0,0.1,0,0.2,0,0.3l-5.6,13.9c-0.2,0.5-0.6,0.7-1.1,0.7h-2.3    C141.1,33,140.8,33,140.7,32.8z"></path>
		<path class="st16" d="M153.1,14.7c-0.1-0.1-0.2-0.3-0.2-0.5v-2.2c0-0.2,0.1-0.4,0.2-0.5c0.1-0.1,0.3-0.2,0.5-0.2h2.7    c0.2,0,0.4,0.1,0.5,0.2c0.1,0.1,0.2,0.3,0.2,0.5v2.2c0,0.2-0.1,0.4-0.2,0.5c-0.1,0.1-0.3,0.2-0.5,0.2h-2.7    C153.4,15,153.3,14.9,153.1,14.7z M153.3,32.8c-0.1-0.1-0.2-0.3-0.2-0.5V18.2c0-0.2,0.1-0.4,0.2-0.5c0.1-0.1,0.3-0.2,0.5-0.2h2.5    c0.2,0,0.4,0.1,0.5,0.2c0.1,0.1,0.2,0.3,0.2,0.5v14.1c0,0.2-0.1,0.4-0.2,0.5c-0.1,0.1-0.3,0.2-0.5,0.2h-2.5    C153.6,33,153.4,32.9,153.3,32.8z"></path>
		<path class="st16" d="M162.4,31.5c-1.3-1.2-2-2.8-2.1-5l0-1.3l0-1.3c0.1-2.1,0.8-3.7,2.1-4.9c1.3-1.2,3.1-1.8,5.4-1.8    c2.3,0,4.1,0.6,5.4,1.8c1.3,1.2,2,2.9,2.1,4.9c0,0.2,0,0.7,0,1.3c0,0.6,0,1.1,0,1.3c-0.1,2.1-0.8,3.8-2.1,5    c-1.3,1.2-3.1,1.8-5.4,1.8C165.5,33.3,163.7,32.7,162.4,31.5z M170.3,29.3c0.6-0.7,0.9-1.6,0.9-2.9c0-0.2,0-0.6,0-1.2    c0-0.6,0-1,0-1.2c0-1.3-0.3-2.2-0.9-2.9c-0.6-0.7-1.4-1-2.4-1c-1.1,0-1.9,0.3-2.4,1c-0.6,0.7-0.9,1.6-0.9,2.9l0,1.2l0,1.2    c0,1.3,0.3,2.2,0.9,2.9c0.6,0.7,1.4,1,2.4,1C168.9,30.3,169.7,30,170.3,29.3z"></path>
		<path class="st16" d="M180.1,31.5c-1.1-1.2-1.6-2.8-1.6-4.9v-8.4c0-0.2,0.1-0.4,0.2-0.5c0.1-0.1,0.3-0.2,0.5-0.2h2.7    c0.2,0,0.4,0.1,0.5,0.2c0.1,0.1,0.2,0.3,0.2,0.5v8.2c0,2.4,1.1,3.7,3.2,3.7c1,0,1.9-0.3,2.5-1s0.9-1.6,0.9-2.7v-8.2    c0-0.2,0.1-0.4,0.2-0.5c0.1-0.1,0.3-0.2,0.5-0.2h2.7c0.2,0,0.4,0.1,0.5,0.2c0.1,0.1,0.2,0.3,0.2,0.5v14.1c0,0.2-0.1,0.4-0.2,0.5    c-0.1,0.1-0.3,0.2-0.5,0.2h-2.5c-0.2,0-0.4-0.1-0.5-0.2c-0.1-0.1-0.2-0.3-0.2-0.5v-1.2c-1.1,1.5-2.7,2.2-5,2.2    C182.6,33.3,181.2,32.7,180.1,31.5z"></path>
		<path class="st16" d="M197.4,32.8c-0.1-0.1-0.2-0.3-0.2-0.5V18.2c0-0.2,0.1-0.4,0.2-0.5c0.1-0.1,0.3-0.2,0.5-0.2h2.4    c0.2,0,0.4,0.1,0.5,0.2c0.1,0.1,0.2,0.3,0.2,0.5v1.2c1-1.3,2.4-2,4.3-2h1.3c0.2,0,0.4,0.1,0.5,0.2c0.1,0.1,0.2,0.3,0.2,0.5v2.2    c0,0.2-0.1,0.4-0.2,0.5c-0.1,0.1-0.3,0.2-0.5,0.2h-2.4c-0.9,0-1.7,0.3-2.2,0.8c-0.5,0.5-0.8,1.3-0.8,2.2v8.2    c0,0.2-0.1,0.4-0.2,0.5c-0.1,0.1-0.3,0.2-0.5,0.2h-2.7C197.7,33,197.6,32.9,197.4,32.8z"></path>
		<path class="st16" d="M216.5,32.8c-0.1-0.1-0.2-0.3-0.2-0.5V12.9c0-0.2,0.1-0.4,0.2-0.5c0.1-0.1,0.3-0.2,0.5-0.2h2.7    c0.2,0,0.4,0.1,0.5,0.2c0.1,0.1,0.2,0.3,0.2,0.5v7.7h8.7v-7.7c0-0.2,0.1-0.4,0.2-0.5c0.1-0.1,0.3-0.2,0.5-0.2h2.8    c0.2,0,0.4,0.1,0.5,0.2c0.1,0.1,0.2,0.3,0.2,0.5v19.4c0,0.2-0.1,0.4-0.2,0.5c-0.1,0.1-0.3,0.2-0.5,0.2h-2.8    c-0.2,0-0.4-0.1-0.5-0.2c-0.1-0.1-0.2-0.3-0.2-0.5v-8h-8.7v8c0,0.2-0.1,0.4-0.2,0.5c-0.1,0.1-0.3,0.2-0.5,0.2H217    C216.8,33,216.6,32.9,216.5,32.8z"></path>
		<path class="st16" d="M239.1,31.4c-1.3-1.3-2-3.1-2.1-5.4l0-0.7c0-2.5,0.7-4.4,2-5.9c1.3-1.4,3.1-2.1,5.4-2.1    c2.4,0,4.2,0.7,5.5,2.1s1.9,3.3,1.9,5.7v0.6c0,0.2-0.1,0.4-0.2,0.5c-0.1,0.1-0.3,0.2-0.5,0.2h-9.9v0.2c0,1.1,0.3,2,0.9,2.8    c0.6,0.7,1.3,1.1,2.3,1.1c1.1,0,2.1-0.5,2.8-1.4c0.2-0.2,0.3-0.4,0.4-0.4c0.1,0,0.3-0.1,0.5-0.1h2.6c0.2,0,0.3,0.1,0.5,0.1    c0.1,0.1,0.2,0.2,0.2,0.4c0,0.5-0.3,1-0.9,1.7c-0.6,0.6-1.4,1.2-2.4,1.7c-1.1,0.5-2.3,0.7-3.7,0.7    C242.2,33.3,240.4,32.7,239.1,31.4z M247.7,23.9L247.7,23.9c0-1.2-0.3-2.2-0.9-2.9c-0.6-0.7-1.4-1.1-2.4-1.1c-1,0-1.8,0.4-2.4,1.1    c-0.6,0.7-0.9,1.6-0.9,2.8v0.1H247.7z"></path>
		<path class="st16" d="M255.2,32.8c-0.1-0.1-0.2-0.3-0.2-0.5V12.5c0-0.2,0.1-0.4,0.2-0.5c0.1-0.1,0.3-0.2,0.5-0.2h2.5    c0.2,0,0.4,0.1,0.5,0.2c0.1,0.1,0.2,0.3,0.2,0.5v19.8c0,0.2-0.1,0.4-0.2,0.5c-0.1,0.1-0.3,0.2-0.5,0.2h-2.5    C255.5,33,255.3,32.9,255.2,32.8z"></path>
		<path class="st16" d="M263.1,38.5c-0.1-0.1-0.2-0.3-0.2-0.5V18.2c0-0.2,0.1-0.4,0.2-0.5c0.1-0.1,0.3-0.2,0.5-0.2h2.4    c0.2,0,0.4,0.1,0.5,0.2c0.1,0.1,0.2,0.3,0.2,0.5v1.2c1.1-1.5,2.6-2.2,4.7-2.2c2,0,3.6,0.6,4.6,1.9c1.1,1.3,1.7,3,1.7,5.1    c0,0.2,0,0.6,0,1.1c0,0.5,0,0.8,0,1.1c-0.1,2.1-0.6,3.8-1.7,5.1c-1.1,1.3-2.6,1.9-4.6,1.9c-2,0-3.5-0.7-4.6-2.1V38    c0,0.2-0.1,0.4-0.2,0.5c-0.1,0.1-0.3,0.2-0.5,0.2h-2.6C263.5,38.7,263.3,38.6,263.1,38.5z M273.8,26.2c0-0.2,0-0.5,0-0.9    c0-0.4,0-0.7,0-0.9c-0.1-2.6-1.3-3.9-3.4-3.9c-1.1,0-2,0.4-2.5,1.1c-0.6,0.7-0.9,1.6-0.9,2.7c0,0.2,0,0.6,0,1.1c0,0.5,0,0.9,0,1.2    c0,1,0.3,1.8,0.9,2.5c0.6,0.7,1.4,1,2.5,1C272.5,30.1,273.7,28.8,273.8,26.2z"></path>
	</g>
</g>
<g id="Text">
	<g>
		<path class="st8" d="M29.1,29.4c-0.1-2.3,0-4.5,0.7-6.7c0.1-0.4,0.3-0.8,0.4-1.2c0.1-0.3,0.1-0.4-0.2-0.4c-1.9-0.2-3.6-0.9-5-2.2    c-0.6-0.5-1.2-1.1-1.6-1.7c-0.2-0.3-0.1-0.4,0.1-0.5c0.3-0.2,0.7-0.3,1-0.5c0.2-0.2,0.4-0.1,0.6,0.1c0.7,1,1.7,1.7,2.8,2.2    c1.2,0.6,2.4,0.8,3.7,0.7c0.2,0,0.4-0.1,0.5-0.2c0.5-0.4,1.2-0.6,1.8-0.5c0.2,0,0.3,0,0.5-0.1c2.6-1.4,4.1-3.5,4.2-6.5    c0.1-1-0.1-1.9-0.4-2.8c-0.1-0.2,0-0.4,0.2-0.5c0.3-0.2,0.7-0.3,1-0.5C39.7,8,39.8,8,39.9,8.3c0.2,0.7,0.4,1.3,0.5,2.2    c0.1,1.1,0.1,1.1,0,2.3c-0.2,1.1-0.5,2.2-1,3.2c-0.8,1.5-1.9,2.7-3.3,3.6c-0.2,0.2-0.3,0.2-0.1,0.5c1.1,1.6,1.7,3.4,2,5.3    c0.2,1,0.3,2,0.3,3c0,0.1,0,0.3,0,0.4c-0.2-0.1-0.3-0.3-0.4-0.4c-0.7-1.1-1.7-2-3.1-2.3c-1.8-0.5-3.3,0.1-4.6,1.4    C29.9,28.1,29.5,28.7,29.1,29.4C29.2,29.4,29.1,29.4,29.1,29.4z"></path>
		<path class="st2" d="M40.7,11c0.1-0.8,0.3-1.5,0.5-2.2c0.1-0.3,0.2-0.4,0.5-0.2C42,8.8,42.2,8.9,42.5,9c0.4,0.2,0.5,0.4,0.3,0.8    c-0.4,1.4-0.4,2.8-0.1,4.2c0.7,2.4,2.1,4.1,4.4,5.1c0.3,0.1,0.6,0.2,0.9,0.2c0.3,0,0.6,0,0.8,0.1c0.7,0.4,1.4,0.3,2.2,0.2    c2.1-0.3,3.8-1.3,5.1-2.9c0.2-0.3,0.4-0.4,0.7-0.2c0.3,0.2,0.5,0.3,0.8,0.4c0.3,0.1,0.3,0.2,0.1,0.5c-1.6,2.2-3.7,3.5-6.3,3.9    c-0.3,0.1-0.4,0.1-0.3,0.5c1,2,1.4,4.1,1.5,6.2c0,0.5,0.1,1,0,1.7c-1.1-1.8-2.4-3.1-4.6-3.1c-2.2,0-3.5,1.3-4.6,3.1    c0-0.4,0-0.8,0-1.2c0.1-1.8,0.3-3.5,0.9-5.2c0.3-0.8,0.7-1.7,1.2-2.4c0.2-0.3,0.2-0.4-0.1-0.6c-2-1.1-3.4-2.8-4.2-4.9    c-0.3-0.7-0.4-1.4-0.6-2.1C40.5,12.4,40.5,12,40.7,11z"></path>
		<path class="st6" d="M9,26.8c0.2-1,0.5-2,0.9-2.9c1.6-3.2,4.1-5.1,7.6-5.7c0.2,0,0.5-0.1,0.7-0.2c0.4-0.1,0.7-0.2,1.1-0.1    c0.7,0.2,1.4,0.2,2.1,0.4c3.3,1,5.6,3.1,6.9,6.3c0.3,0.7,0.4,1.4,0.5,2.1c0.1,0.3-0.1,0.4-0.4,0.4c-0.4,0-0.7,0-1.1,0    c-0.4,0-0.5-0.1-0.6-0.5c-0.3-1.7-1.1-3.2-2.3-4.4c-0.6-0.6-1.2-1-1.9-1.4c-0.1-0.1-0.2-0.2-0.3-0.1c-0.1,0.1,0,0.2,0,0.3    c1,2.4,1.3,4.9,1.3,7.4c0,0.1,0,0.2,0,0.3c0,0,0,0-0.1,0.1c-1-1.8-2.3-3.2-4.6-3.2c-2.2,0-3.6,1.4-4.6,3.3c-0.1-1.4,0-2.8,0.2-4.2    c0.2-1.4,0.6-2.7,1.2-4.1c-0.7,0.3-1.3,0.7-1.8,1.1c-1.6,1.3-2.6,3-2.9,5c-0.1,0.4-0.2,0.5-0.6,0.5c-0.5,0-0.9,0-1.4,0    C9,27.1,9,26.9,9,26.8z"></path>
		<path class="st6" d="M14.6,14.2c0-1.4,1-2.7,2.3-3.3c1.5-0.6,2.9-0.4,4.2,0.5c2,1.5,1.9,4.4-0.3,5.8c-1.7,1.1-4,0.8-5.4-0.7    C14.9,15.9,14.6,15,14.6,14.2z"></path>
		<path class="st8" d="M31.9,18.5c-2.1,0-3.8-1.7-3.8-3.7c0-2,1.8-3.7,3.9-3.7c2.1,0,3.8,1.7,3.8,3.7C35.8,16.9,34,18.5,31.9,18.5z"></path>
		<path class="st2" d="M53.1,15c0.1,2-1.6,3.7-3.8,3.7c-2.2,0-3.8-1.7-3.8-3.6c0-2,1.7-3.6,3.8-3.7C51.5,11.3,53.1,12.9,53.1,15z"></path>
	</g>
</g>
</svg>